<svg xmlns="http://www.w3.org/2000/svg" width="21" height="20" viewBox="0 0 21 20" version="1.1"><path d="M 6 0.500 C 6 0.775, 6.225 1, 6.500 1 C 6.775 1, 7 0.775, 7 0.500 C 7 0.225, 6.775 0, 6.500 0 C 6.225 0, 6 0.225, 6 0.500 M 14 0.500 C 14 0.775, 14.225 1, 14.500 1 C 14.775 1, 15 0.775, 15 0.500 C 15 0.225, 14.775 0, 14.500 0 C 14.225 0, 14 0.225, 14 0.500 M 6 2.500 C 6 2.775, 6.225 3, 6.500 3 C 6.775 3, 7 2.775, 7 2.500 C 7 2.225, 6.775 2, 6.500 2 C 6.225 2, 6 2.225, 6 2.500 M 15 2.500 C 15 2.775, 15.225 3, 15.500 3 C 15.775 3, 16 2.775, 16 2.500 C 16 2.225, 15.775 2, 15.500 2 C 15.225 2, 15 2.225, 15 2.500 M 3.405 4.155 C 2.962 4.870, 3.130 5.038, 3.845 4.595 C 4.480 4.203, 5 3.684, 5 3.441 C 5 2.607, 4.117 3.002, 3.405 4.155 M 18.500 4 C 18.840 4.550, 19.343 5, 19.618 5 C 19.893 5, 19.840 4.550, 19.500 4 C 19.160 3.450, 18.657 3, 18.382 3 C 18.107 3, 18.160 3.450, 18.500 4 M 1 4.500 C 1 4.775, 1.225 5, 1.500 5 C 1.775 5, 2 4.775, 2 4.500 C 2 4.225, 1.775 4, 1.500 4 C 1.225 4, 1 4.225, 1 4.500 M 15 4.500 C 15 4.775, 15.225 5, 15.500 5 C 15.775 5, 16 4.775, 16 4.500 C 16 4.225, 15.775 4, 15.500 4 C 15.225 4, 15 4.225, 15 4.500 M 16.329 6.584 C 15.840 7.859, 15.557 7.908, 14.876 6.834 C 14.299 5.924, 14.026 5.879, 14.015 6.691 C 13.991 8.606, 15.959 9.272, 16.612 7.569 C 16.941 6.712, 17.682 6.303, 18.259 6.660 C 18.872 7.039, 19.012 6.829, 18.595 6.155 C 17.630 4.592, 17.052 4.702, 16.329 6.584 M -0 7 C -0 7.733, 0.300 8.033, 0.667 7.667 C 1.033 7.300, 1.033 6.700, 0.667 6.333 C 0.300 5.967, -0 6.267, -0 7 M 2 6.500 C 2 6.775, 2.225 7, 2.500 7 C 2.775 7, 3 6.775, 3 6.500 C 3 6.225, 2.775 6, 2.500 6 C 2.225 6, 2 6.225, 2 6.500 M 19.872 6.750 C 19.802 7.162, 19.642 8.451, 19.515 9.614 C 19.389 10.777, 18.942 12.284, 18.522 12.964 C 17.939 13.908, 18.220 13.953, 19.714 13.153 C 21.186 12.365, 21.558 11.352, 21.221 9.053 C 20.799 6.176, 20.157 5.079, 19.872 6.750 M 5.083 8.283 C 5.313 8.439, 6.400 9.226, 7.500 10.033 C 9.350 11.390, 9.397 11.369, 8.128 9.750 C 7.373 8.787, 6.285 8, 5.711 8 C 5.137 8, 4.854 8.127, 5.083 8.283 M 14 10.500 C 14 10.775, 14.225 11, 14.500 11 C 14.775 11, 15 10.775, 15 10.500 C 15 10.225, 14.775 10, 14.500 10 C 14.225 10, 14 10.225, 14 10.500 M 6.500 12 C 6.840 12.550, 7.343 13, 7.618 13 C 7.893 13, 7.840 12.550, 7.500 12 C 7.160 11.450, 6.657 11, 6.382 11 C 6.107 11, 6.160 11.450, 6.500 12 M 10.405 12.155 C 9.962 12.870, 10.130 13.038, 10.845 12.595 C 11.480 12.203, 12 11.684, 12 11.441 C 12 10.607, 11.117 11.002, 10.405 12.155 M 2 13.500 C 2 13.775, 2.225 14, 2.500 14 C 2.775 14, 3 13.775, 3 13.500 C 3 13.225, 2.775 13, 2.500 13 C 2.225 13, 2 13.225, 2 13.500 M 12 13.500 C 12 13.775, 12.225 14, 12.500 14 C 12.775 14, 13 13.775, 13 13.500 C 13 13.225, 12.775 13, 12.500 13 C 12.225 13, 12 13.225, 12 13.500 M 19.490 15.016 C 19.144 15.575, 18.373 15.731, 17.776 15.362 C 17.113 14.952, 16.980 15.159, 17.435 15.894 C 18.004 16.815, 18.509 16.823, 19.589 15.926 C 21.004 14.752, 21.383 14, 20.559 14 C 20.316 14, 19.835 14.457, 19.490 15.016 M 9.500 16 C 9.840 16.550, 10.343 17, 10.618 17 C 10.893 17, 10.840 16.550, 10.500 16 C 10.160 15.450, 9.657 15, 9.382 15 C 9.107 15, 9.160 15.450, 9.500 16 M 3 17.500 C 3 17.775, 3.225 18, 3.500 18 C 3.775 18, 4 17.775, 4 17.500 C 4 17.225, 3.775 17, 3.500 17 C 3.225 17, 3 17.225, 3 17.500 M 6 17.500 C 6 17.775, 6.225 18, 6.500 18 C 6.775 18, 7 17.775, 7 17.500 C 7 17.225, 6.775 17, 6.500 17 C 6.225 17, 6 17.225, 6 17.500 M 13.405 18.155 C 12.962 18.870, 13.130 19.038, 13.845 18.595 C 14.998 17.883, 15.393 17, 14.559 17 C 14.316 17, 13.797 17.520, 13.405 18.155 M 9.813 18.683 C 10.534 18.972, 11.397 18.936, 11.729 18.604 C 12.061 18.272, 11.471 18.036, 10.417 18.079 C 9.252 18.127, 9.015 18.364, 9.813 18.683 M 16 18.500 C 16 18.775, 16.225 19, 16.500 19 C 16.775 19, 17 18.775, 17 18.500 C 17 18.225, 16.775 18, 16.500 18 C 16.225 18, 16 18.225, 16 18.500 M 7 19.500 C 7 19.775, 7.225 20, 7.500 20 C 7.775 20, 8 19.775, 8 19.500 C 8 19.225, 7.775 19, 7.500 19 C 7.225 19, 7 19.225, 7 19.500" stroke="none" fill="#1ca4c4" fill-rule="evenodd"/><path d="M 5.206 1.048 C 3.944 1.554, 2.235 3.587, 1.408 5.565 C -1.746 13.115, 2.170 19.467, 10.184 19.798 C 14.627 19.982, 15.768 19.387, 19.924 14.721 C 23.304 10.928, 21.851 11.322, 17.390 15.409 C 14.404 18.145, 12.992 18.756, 10.246 18.501 C 5.313 18.042, 2 14.557, 2 9.826 C 2 4.481, 4.851 1.807, 10.321 2.022 C 16.101 2.248, 16.722 2.113, 15 1 C 13.141 -0.202, 8.259 -0.178, 5.206 1.048 M 15.771 4.796 C 15.106 6.558, 14.199 8, 13.756 8 C 13.313 8, 12.515 9.146, 11.983 10.546 L 11.015 13.092 8.819 11.046 C 5.356 7.820, 4.637 8.657, 7.568 12.500 C 10.379 16.186, 12 16.948, 12 14.583 C 12 13.804, 12.338 13.017, 12.750 12.833 C 13.162 12.650, 14.330 10.708, 15.344 8.519 C 17.089 4.751, 17.264 4.641, 18.594 6.460 C 19.584 7.813, 19.991 7.955, 19.968 6.941 C 19.951 6.149, 19.271 4.621, 18.458 3.546 C 17.034 1.662, 16.937 1.708, 15.771 4.796 M 19 10.500 C 19 10.775, 19.225 11, 19.500 11 C 19.775 11, 20 10.775, 20 10.500 C 20 10.225, 19.775 10, 19.500 10 C 19.225 10, 19 10.225, 19 10.500 M 0 13.500 C 0 13.775, 0.225 14, 0.500 14 C 0.775 14, 1 13.775, 1 13.500 C 1 13.225, 0.775 13, 0.500 13 C 0.225 13, 0 13.225, 0 13.500" stroke="none" fill="#1cacc4" fill-rule="evenodd"/></svg>