<svg xmlns="http://www.w3.org/2000/svg" width="21" height="20" viewBox="0 0 21 20" version="1.1"><path d="M 2.979 2.867 C -1.195 7.041, -1.218 12.936, 2.923 17.077 C 5.321 19.474, 6.687 20, 10.523 20 C 14.509 20, 15.703 19.497, 18.600 16.600 C 21.404 13.796, 22 12.452, 22 8.933 C 22 6.587, 21.719 4.948, 21.376 5.291 C 21.033 5.634, 19.962 4.939, 18.996 3.747 L 17.241 1.579 13.998 6.849 L 10.755 12.119 8.382 9.889 C 4.842 6.564, 4.311 8.399, 7.487 12.982 C 9.019 15.192, 10.411 17, 10.580 17 C 10.749 17, 12.351 14.553, 14.140 11.562 C 17.623 5.739, 19 5.326, 19 10.104 C 19 14.351, 15.072 18, 10.500 18 C 2.918 18, -0.713 9.622, 4.576 4.333 C 6.788 2.121, 7.783 1.828, 11.620 2.261 C 14.688 2.606, 15.971 2.410, 15.716 1.632 C 15.511 1.009, 13.232 0.362, 10.651 0.194 C 6.567 -0.072, 5.571 0.275, 2.979 2.867 M 0.272 10 C 0.272 12.475, 0.467 13.488, 0.706 12.250 C 0.944 11.012, 0.944 8.988, 0.706 7.750 C 0.467 6.512, 0.272 7.525, 0.272 10" stroke="none" fill="#ff5454" fill-rule="evenodd"/><path d="" stroke="none" fill="#fc5454" fill-rule="evenodd"/></svg>